/* XPM */
static char *product_logo_32[] = {
/* columns rows colors chars-per-pixel */
"32 32 164 2 ",
"   c None",
".  c #F96933",
"X  c #F96A34",
"o  c #F96B35",
"O  c #F96B36",
"+  c #F96C36",
"@  c #F96C37",
"#  c #F96D37",
"$  c #F96D38",
"%  c #F96D39",
"&  c #F96E39",
"*  c #F96E3A",
"=  c #F96F3A",
"-  c #F9703C",
";  c #F9703D",
":  c #F9713D",
">  c #F9713E",
",  c #F9723E",
"<  c #F9723F",
"1  c #F97341",
"2  c #F97442",
"3  c #F97644",
"4  c #F97645",
"5  c #F97846",
"6  c #F97948",
"7  c #FA7A49",
"8  c #F97A4A",
"9  c #FA7A4A",
"0  c #FA7D4D",
"q  c #FA7D4E",
"w  c #FA7F50",
"e  c #FA8052",
"r  c #FA8153",
"t  c #FA8154",
"y  c #FA8255",
"u  c #FA8356",
"i  c #FA8458",
"p  c #FA8559",
"a  c #FA8659",
"s  c #FA875B",
"d  c #FA875C",
"f  c #FA885C",
"g  c #FA885D",
"h  c #FA895F",
"j  c #FA8A5F",
"k  c #FA8B61",
"l  c #FA8D63",
"z  c #FA8D64",
"x  c #FA8E65",
"c  c #FA8E66",
"v  c #FA8F66",
"b  c #FA8F67",
"n  c #FA9067",
"m  c #FA9068",
"M  c #FA9169",
"N  c #FA926A",
"B  c #FB936B",
"V  c #FB946D",
"C  c #FB966F",
"Z  c #FB9670",
"A  c #FB9671",
"S  c #FB9771",
"D  c #FB9772",
"F  c #FB9873",
"G  c #FB9A75",
"H  c #FB9A76",
"J  c #FB9B76",
"K  c #FB9C78",
"L  c #FB9D7A",
"P  c #FBA584",
"I  c #FBA685",
"U  c #FBA686",
"Y  c #FBA787",
"T  c #FCAB8C",
"R  c #FCAB8D",
"E  c #FCAC8E",
"W  c #FCAF92",
"Q  c #FCB296",
"!  c #FCB499",
"~  c #FCB59A",
"^  c #FCB59B",
"/  c #FCBAA1",
"(  c #FCBBA2",
")  c #FCBBA3",
"_  c #FCBCA3",
"`  c #FCBDA5",
"'  c #FCBFA8",
"]  c #FCC0A9",
"[  c #FCC3AD",
"{  c #FDC3AD",
"}  c #FDC4AE",
"|  c #FDC5B0",
" . c #FDC6B2",
".. c #FDC7B2",
"X. c #FDC7B3",
"o. c #FDC8B5",
"O. c #FDC9B5",
"+. c #FDCAB6",
"@. c #FDCAB7",
"#. c #FDCBB8",
"$. c #FDCCBA",
"%. c #FDCDBB",
"&. c #FDCEBC",
"*. c #FDD0BF",
"=. c #FDD1C0",
"-. c #FDD2C1",
";. c #FDD4C4",
":. c #FDD5C6",
">. c #FDD6C7",
",. c #FDD6C8",
"<. c #FDD7C8",
"1. c #FDD7C9",
"2. c #FDD8CA",
"3. c #FDDACC",
"4. c #FEDCCF",
"5. c #FEDCD0",
"6. c #FEDDD1",
"7. c #FEDED1",
"8. c #FEDED2",
"9. c #FEDFD3",
"0. c #FEDFD4",
"q. c #FEE0D4",
"w. c #FEE0D5",
"e. c #FEE1D6",
"r. c #FEE2D7",
"t. c #FEE6DC",
"y. c #FEE6DD",
"u. c #FEE7DE",
"i. c #FEE8DF",
"p. c #FEE8E0",
"a. c #FEE9E1",
"s. c #FEEAE3",
"d. c #FEEBE3",
"f. c #FEEBE4",
"g. c #FEECE5",
"h. c #FEEDE6",
"j. c #FEEEE7",
"k. c #FEEEE8",
"l. c #FEEFE9",
"z. c #FEF0EA",
"x. c #FEF0EB",
"c. c #FEF2ED",
"v. c #FEF2EE",
"b. c #FFF3EF",
"n. c #FFF4F0",
"m. c #FFF5F1",
"M. c #FFF5F2",
"N. c #FFF6F2",
"B. c #FFF6F3",
"V. c #FFF7F3",
"C. c #FFF7F4",
"Z. c #FFF8F5",
"A. c #FFF8F6",
"S. c #FFF9F6",
"D. c #FFF9F7",
"F. c #FFFBF9",
"G. c #FFFBFA",
"H. c #FFFCFB",
"J. c #FFFDFC",
"K. c #FFFDFD",
"L. c #FFFEFD",
"P. c #FFFEFE",
"I. c #FFFFFE",
"U. c white",
/* pixels */
"                        $ $ $ $ $ $ $ $                         ",
"                  $ $ $ $ $ $ $ $ $ $ $ $ $ $                   ",
"              $ $ $ $ $ $ $ $ $ $ $ $ $ $ $ $ $ $               ",
"            $ $ $ $ $ $ $ $ $ $ $ $ $ $ $ $ $ $ $ $             ",
"          $ $ $ $ $ $ $ $ $ $ $ $ $ $ $ $ $ $ $ $ $ $           ",
"        $ $ $ $ $ $ $ $ @ @ @ $ $ $ $ $ $ $ $ $ $ $ $ $         ",
"      $ $ $ $ $ $ $ $ @ q z y $ $ : $ @ $ $ $ $ $ $ $ $ $       ",
"    $ $ $ $ $ $ @ @ $ P p.A.l.~ z -.] g @ $ $ $ $ $ $ $ $ $     ",
"    $ $ $ $ $ @ 4 m _ A.F.F.F.F.r.F.F.p.G : @ $ $ $ $ $ $ $     ",
"  $ $ $ $ $ $ g 2.A.F.F.F.F.F.F.F.F.F.F.n.-.z $ $ $ $ $ $ $ $   ",
"  $ $ $ $ $ @ S l.F.F.F.F.F.F.F.F.F.F.F.F.F.1.q @ $ $ $ $ $ $   ",
"  $ $ $ $ $ q O.F.F.2.0.F.F.F.F.F.F.F.F.F.F.O.4 @ $ $ $ $ $ $   ",
"$ $ $ $ $ : ] F.F.n.L p.F.F.F.F.F.F.F.F.F.F.n.z @ $ $ $ $ $ $ $ ",
"$ $ $ $ @ y x.F.F.0.m A.F.F.F.F.#.p.F.F.w._ A.E @ $ $ $ $ $ $ $ ",
"$ $ $ $ @ z A.F.F.r.z l.F.F.F.p.y ] F.F.#.S x.E @ @ $ $ $ $ $ $ ",
"$ $ $ $ @ S F.F.F.n.m ] F.F.F.F.r.n.F.F.F.n.F.] y 4 $ $ $ $ $ $ ",
"$ $ $ $ $ _ F.F.F.F.O.g p.F.F.F.F.F.F.F.F.F.F.0. ._ n @ $ $ $ $ ",
"$ $ $ @ S n.F.F.F.F.A.G Q F.F.F.F.F.F.F.F.F.p.y : w ~ : $ $ $ $ ",
"$ $ @ 5 0.F.F.F.F.F.F.1.z l.F.F.F.F.F.F.F.F.F.E $ m *.4 @ $ $ $ ",
"$ $ @ g n.F.F.F.F.F.F.n.b 1.F.F.F.2.-.F.F.F.F.p.n w.-.: $ $ $ $ ",
"  $ @ p x.F.F.F.F.F.F.F.m -.F.F.F.p.G P #.2.#.G m x.P @ $ $ $   ",
"  $ $ : #.A.F.F.F.F.F.p.g 0.F.F.A.F.x._ G m S Q z p : $ $ $ $   ",
"  $ $ @ y L 0.F.F.F.F.Q z n.F.F.~ w.F.F.F.A.F.p.p @ $ $ $ $ $   ",
"    $ $ $ @ y ] 0.2.P q #.F.F.F.-.z P #.0.0.O.z @ $ $ $ $ $     ",
"    $ $ $ $ @ $ 4 : : _ F.F.F.F.F.w.Y p 4 4 $ @ $ $ $ $ $ $     ",
"      $ $ $ $ @ @ q  .F.F.F.F.F.F.F.F.0.4 @ $ $ $ $ $ $ $       ",
"        $ $ @ : G w.F.F.F.F.F.F.F.F.F.l.y @ $ $ $ $ $ $         ",
"          : z O.A.F.F.F.F.F.F.F.F.F.F.F.m @ $ $ $ $ $           ",
"            l.F.F.F.F.F.F.F.F.F.F.F.F.F.W @ $ $ $ $             ",
"              F.F.F.F.F.F.F.F.F.F.F.F.F.#.$ $ $ $               ",
"                  F.F.F.F.F.F.F.F.F.F.F.r.q $                   ",
"                        F.F.F.F.F.F.F.F.                        "
};
