<svg width="1000" height="1001" viewBox="0 0 1000 1001" fill="none" xmlns="http://www.w3.org/2000/svg">
<rect y="1" width="1000" height="1000" rx="500" fill="white"/>
<path fill-rule="evenodd" clip-rule="evenodd" d="M462.456 2.00557C389.007 8.00384 330.116 20.8756 269.096 51.6307C218.955 76.902 178.846 105.498 138.058 147.176C91.1973 195.056 62.4004 246.763 36.9211 307.871C-0.071797 396.584 -9.74938 503.409 10.0769 604.165C26.8208 689.251 66.3703 768.338 126.053 836.082C141.612 853.743 168.52 885.404 171.412 885.404C172.237 885.404 188.108 879.425 200.217 873.147C307.056 817.76 371.475 764.869 398.438 710.397C410 687.041 415.277 663.25 415.275 634.5C415.27 593.881 404.395 562.896 371.247 509.07C345.986 468.05 338.444 447.863 338.444 421.269C338.444 403.977 341.33 392.351 350.19 373.957C359.557 354.511 359.267 350.884 348.34 350.884C342.972 350.884 328.157 365.668 320.802 378.362C302.738 409.538 302.094 445.847 318.88 486.827C324.324 500.117 333.655 516.807 354.031 549.692C365.94 568.914 373.047 584.336 377.724 601.113C380.578 611.354 381.232 617.638 381.193 634.5C381.151 652.645 380.619 656.889 376.994 668.054C361.995 714.232 320.939 745.549 275.399 745.549C239.848 745.549 207.416 727.847 184.465 695.913C175.744 683.777 173.861 681.959 171.412 683.301C168.465 684.918 167.171 689.906 166.456 702.408L166.046 709.598L153.583 696.815C132.132 674.818 121.74 651.244 120.435 621.621C119.173 592.977 125.412 576.876 149.828 545.769C166.254 524.844 174.558 509.862 178.586 493.891C179.982 488.352 181.579 471.484 182.367 453.945C183.905 419.751 186.066 410.047 196.063 392.436C204.599 377.399 226.905 354.946 245.986 342.186C254.762 336.319 262.357 330.828 262.864 329.988C264.842 326.709 250.633 322.195 238.221 322.159C230.559 322.136 226.132 321.486 226.132 320.382C226.132 319.425 232.625 311.995 240.561 303.873C259.348 284.645 272.904 277.394 300.634 271.741C311.115 269.603 322.248 266.76 325.374 265.423C328.5 264.085 337.82 256.342 346.086 248.217C373.28 221.485 391.821 211.95 419.162 210.628C438.614 209.689 450.691 211.895 466.207 219.221C479.284 225.397 488.25 232.256 500.673 245.59C510.182 255.797 516.199 258.383 522.25 254.861C530.256 250.2 530.603 242.385 523.143 234.744C519.426 230.937 519.368 230.617 522.037 228.61C526.887 224.962 539.692 221.46 548.18 221.46C559.194 221.46 578.956 226.776 590.367 232.806C602.458 239.197 612.486 247.054 627.179 261.645C640.749 275.122 649.741 280.645 665.318 285.066C692.025 292.647 710.604 308.502 722.192 333.601C724.71 339.054 726.521 343.772 726.217 344.086C725.911 344.397 721.28 343.141 715.925 341.293C704.656 337.403 695.159 337.53 694.412 341.577C694.139 343.047 697.349 348.133 701.544 352.878C727.496 382.234 735.626 409.908 731.622 455.279C730.145 472.019 730.219 476.211 732.079 480.769C736.225 490.933 749.11 497.12 771.006 499.459C798.469 502.394 806.826 504.885 818.357 513.576C845.062 533.699 846.488 612.453 820.779 647.26C804.941 668.701 781.654 666.926 772.204 643.558C770.352 638.98 770.618 637.852 775.74 628.468C778.785 622.89 782.485 613.875 783.962 608.436C786.385 599.51 787.379 598.064 794.147 593.615C808.798 583.984 817.269 570.382 818.514 554.487C819.94 536.295 813.735 526.956 797.797 523.302C784.964 520.36 727.471 523.222 721.709 527.09C705.107 538.232 721.584 578.823 748.723 593.64C757.334 598.341 757.989 599.081 757.061 603.04C753.992 616.134 738.966 632.658 723.306 640.155C707.546 647.7 692.013 650.227 667.582 649.222C628.43 647.613 595.398 634.284 569.394 609.607C560.334 601.008 555.964 599.312 551.159 602.537C549.13 603.9 547.392 605.895 547.297 606.974C546.804 612.576 548.116 617.617 551.733 624.013C573.179 661.935 637.58 688.209 693.334 681.783C715.213 679.26 725.413 676.422 739.941 668.813C746.709 665.268 752.376 662.569 752.537 662.815C754.825 666.322 759.616 680.938 759.616 684.415C759.616 698.352 739.846 722.175 720.32 731.763C699.435 742.02 686.034 744.698 655.883 744.642C627.075 744.587 614.94 742.739 587.781 734.269C558.417 725.11 542.318 715.886 522.401 696.806C515.526 690.22 508.863 684.832 507.593 684.832C506.325 684.832 504.465 686.676 503.464 688.93C501.107 694.227 503.673 704.549 510.38 716.753C516.64 728.146 536.351 747.879 549.147 755.564C562.738 763.729 587.157 773.24 605.576 777.543L620.785 781.096V786.345C620.785 813.94 637.796 898.428 656.483 963.654C660.346 977.136 661.533 979.579 664.078 979.295C670.05 978.63 710.925 960.154 732.318 948.453C757.875 934.474 794.531 909.829 816.58 891.804C837.156 874.982 874.14 836.974 891.26 815.055C936.289 757.407 967.057 694.414 984.903 623.334C1004.68 544.558 1004.97 454.809 985.686 378.668C939.454 196.129 803.005 53.0031 622.431 11.6161C576.603 1.11191 504.022 -1.38983 462.456 2.00557ZM652.348 419.991C646.567 424.105 641.064 434.43 641.064 441.162C641.064 448.01 646.578 458.268 652.446 462.333C663.097 469.712 679.286 465.571 685.886 453.779C692.397 442.143 688.782 426.593 677.975 419.753C670.631 415.103 659.063 415.21 652.348 419.991ZM508.457 424.784C496.639 433.023 492.794 446.847 498.906 459.12C503.885 469.118 510.444 473.119 521.853 473.119C529.778 473.119 532.252 472.403 536.924 468.752C552.203 456.814 549.593 430.735 532.384 423.369C524.544 420.013 514.442 420.611 508.457 424.784Z" fill="#F96D38"/>
</svg>
