/* XPM */
static char *product_logo_32[] = {
/* columns rows colors chars-per-pixel */
"32 32 161 2 ",
"   c None",
".  c #F96730",
"X  c #F96831",
"o  c #F96932",
"O  c #F96A34",
"+  c #F96A35",
"@  c #F96B35",
"#  c #F96B36",
"$  c #F96C36",
"%  c #F96C37",
"&  c #F96D37",
"*  c #F96D38",
"=  c #F96E39",
"-  c #F96E3A",
";  c #F96F3A",
":  c #F96F3B",
">  c #F9703C",
",  c #F9703D",
"<  c #F9713E",
"1  c #F9723E",
"2  c #F9723F",
"3  c #F97340",
"4  c #F97441",
"5  c #F97543",
"6  c #F97544",
"7  c #F97645",
"8  c #F97746",
"9  c #F97847",
"0  c #FA7A49",
"q  c #F97A4A",
"w  c #FA7B4B",
"e  c #FA7C4C",
"r  c #FA7D4D",
"t  c #FA7D4E",
"y  c #FA7F51",
"u  c #FA8051",
"i  c #FA8254",
"p  c #FA8255",
"a  c #FA8356",
"s  c #FA8357",
"d  c #FA8558",
"f  c #FA8559",
"g  c #FA865A",
"h  c #FA875B",
"j  c #FA885C",
"k  c #FA895E",
"l  c #FA895F",
"z  c #FA8A5F",
"x  c #FA8B61",
"c  c #FA8C62",
"v  c #FA8D63",
"b  c #FA8F66",
"n  c #FA9067",
"m  c #FA9169",
"M  c #FB926A",
"N  c #FB936C",
"B  c #FB946E",
"V  c #FB956F",
"C  c #FB9670",
"Z  c #FB9771",
"A  c #FB9872",
"S  c #FB9873",
"D  c #FB9974",
"F  c #FB9975",
"G  c #FB9A75",
"H  c #FB9A76",
"J  c #FB9B77",
"K  c #FB9C78",
"L  c #FB9D79",
"P  c #FB9D7A",
"I  c #FB9E7A",
"U  c #FB9E7B",
"Y  c #FB9F7C",
"T  c #FB9F7D",
"R  c #FBA07D",
"E  c #FBA07E",
"W  c #FBA17F",
"Q  c #FBA281",
"!  c #FBA381",
"~  c #FBA382",
"^  c #FBA483",
"/  c #FBA584",
"(  c #FBA787",
")  c #FCAA8B",
"_  c #FCAB8C",
"`  c #FCAC8E",
"'  c #FCAD8F",
"]  c #FCAE91",
"[  c #FCB195",
"{  c #FCB599",
"}  c #FCB59A",
"|  c #FCB79C",
" . c #FCBAA1",
".. c #FCBBA2",
"X. c #FCBCA4",
"o. c #FCBEA6",
"O. c #FCC1AA",
"+. c #FCC1AB",
"@. c #FDC3AD",
"#. c #FDC4AE",
"$. c #FDC4AF",
"%. c #FDC5B0",
"&. c #FDC6B1",
"*. c #FDC7B3",
"=. c #FDCAB7",
"-. c #FDCCBA",
";. c #FDCDBB",
":. c #FDCEBD",
">. c #FDCFBD",
",. c #FDCFBE",
"<. c #FDD1C1",
"1. c #FDD2C2",
"2. c #FDD3C3",
"3. c #FDD3C4",
"4. c #FDD6C7",
"5. c #FDD7C9",
"6. c #FDD8CA",
"7. c #FDD9CC",
"8. c #FEDCCF",
"9. c #FEDDD1",
"0. c #FEDFD3",
"q. c #FEE0D4",
"w. c #FEE1D7",
"e. c #FEE2D7",
"r. c #FEE3D8",
"t. c #FEE3D9",
"y. c #FEE4DA",
"u. c #FEE5DB",
"i. c #FEE5DC",
"p. c #FEE6DC",
"a. c #FEE6DD",
"s. c #FEE7DE",
"d. c #FEE7DF",
"f. c #FEE8DF",
"g. c #FEE8E0",
"h. c #FEEAE2",
"j. c #FEEBE4",
"k. c #FEECE5",
"l. c #FEECE6",
"z. c #FEEFE9",
"x. c #FEF0EA",
"c. c #FEF0EB",
"v. c #FEF1EC",
"b. c #FEF2ED",
"n. c #FFF3EF",
"m. c #FFF4EF",
"M. c #FFF5F1",
"N. c #FFF6F2",
"B. c #FFF6F3",
"V. c #FFF8F5",
"C. c #FFF8F6",
"Z. c #FFF9F6",
"A. c #FFF9F7",
"S. c #FFFBF9",
"D. c #FFFBFA",
"F. c #FFFCFB",
"G. c #FFFDFC",
"H. c #FFFDFD",
"J. c #FFFEFD",
"K. c #FFFEFE",
"L. c white",
/* pixels */
"                        * * * * * * * * *                       ",
"                  * * * * * * * * * * * * * *                   ",
"              * * * * * * * * * * * * * * * * * *               ",
"            * * * * * * * * * * * * * * * * * * * *             ",
"          * * * * * * * * * * * * * * * * * * * * * *           ",
"        * * * * * * * * @ @ @ @ * @ @ * * * * * * * * *         ",
"      * * * * * * * @ * b ( G 6 2 p 6 @ * * * * * * * * *       ",
"      * * * * * @ @ 6 | B.F.F.>.( g.6.G @ @ * * * * * * *       ",
"    * * * * * @ p _ 1.F.F.F.F.F.B.F.F.B._ t * * * * * * * *     ",
"    * * * * @ l w.F.F.F.F.F.F.F.F.F.F.F.F.t.Y * * * * * * *     ",
"  * * * * * @ l t.F.F.C.F.F.F.F.F.F.F.F.F.F.%.6 @ * * * * * *   ",
"  * * * * * y 6.F.F.=.1.F.F.F.F.F.F.F.F.F.F.=.2 * * * * * * *   ",
"  * * * * * #.F.F.B.G g.F.F.F.F.F.F.F.F.F.C.B.b @ * * * * * *   ",
"* * * * * t t.F.F.g.m n.F.F.F.n.( 1.F.F.#.Y B.G @ * * * * * * * ",
"* * * * @ t g.F.F.n.b 6.F.F.F.n.Y 1.F.F.6.#.C.G @ @ * * * * * * ",
"* * * * @ l B.F.F.F.] Y F.F.F.F.F.F.F.F.F.F.F.1.( b * * * * * * ",
"* * * * * o.F.F.F.F.g.g >.F.F.F.F.F.F.F.F.F.g.[ ( [ m @ * * * * ",
"* * * @ Y C.F.F.F.F.F.o.m C.F.F.F.F.F.F.F.F.t.6 . g | * * * * * ",
"* * * 2 5.F.F.F.F.F.F.z.b 9.F.F.F.n.F.F.F.F.F.#.t %.%.* * * * * ",
"  * @ 6 t.F.F.F.F.F.F.F.G >.F.F.F.>._ f.F.F.F.%.R F._ @ * * *   ",
"  * * 2 >.F.F.F.F.F.F.F.C >.F.F.F.C.o.m G ( G p G #.t @ * * *   ",
"  * * @ m 1.n.F.F.F.F.w.g t.F.F.9.F.F.g.>.#.>.9.p @ @ * * * *   ",
"    * * * 6 R g.F.F.t.m R F.F.F.[ ] t.F.F.F.B.| 2 * * * * *     ",
"    * * * * * p R Y t l g.F.F.F.n.( g m R Y l * @ * * * * *     ",
"      * * * * @ @ @ b w.F.F.F.F.F.F.t._ * @ @ * * * * * *       ",
"        * * * @ 2 ( g.F.F.F.F.F.F.F.F.t.6 @ * * * * * *         ",
"          * * b >.F.F.F.F.F.F.F.F.F.F.n.p @ * * * * *           ",
"          6 o.n.F.F.F.F.F.F.F.F.F.F.F.F.C @ * * * *             ",
"              F.F.F.F.F.F.F.F.F.F.F.F.F.[ @ * * *               ",
"                  F.F.F.F.F.F.F.F.F.F.F.1.2 * *                 ",
"                      F.F.F.F.F.F.F.F.F.g.t                     ",
"                                                                "
};
